HIERARCHY
ROOT joint_Root
{
	OFFSET 0.0 0.0 0.0
	CHANNELS 6 Xposition Yposition Zposition Zrotation Xrotation Yrotation 
	JOINT Hips
	{
		OFFSET 4.5925 91.4895 -427.239
		CHANNELS 6 Xposition Yposition Zposition Zrotation Xrotation Yrotation 
		JOINT Spine
		{
			OFFSET 15.7357 0.0 0.0
			CHANNELS 6 Xposition Yposition Zposition Zrotation Xrotation Yrotation 
			JOINT Chest
			{
				OFFSET 8.98455 -0.406207 0.0
				CHANNELS 6 Xposition Yposition Zposition Zrotation Xrotation Yrotation 
				JOINT Neck
				{
					OFFSET 16.3773 0.0 0.0
					CHANNELS 6 Xposition Yposition Zposition Zrotation Xrotation Yrotation 
					JOINT Head
					{
						OFFSET 6.45672 0.0 0.0
						CHANNELS 6 Xposition Yposition Zposition Zrotation Xrotation Yrotation 
						End Site
						{
							OFFSET 0.0 0.0 0.0
						}
					}
				}
				JOINT Shoulder_L
				{
					OFFSET 12.9942 -0.242716 4.98039
					CHANNELS 6 Xposition Yposition Zposition Zrotation Xrotation Yrotation 
					JOINT UpperArm_L
					{
						OFFSET 5.34809 0.0 0.0
						CHANNELS 6 Xposition Yposition Zposition Zrotation Xrotation Yrotation 
						JOINT LowerArm_L
						{
							OFFSET 24.3286 1.87007e-05 0.0
							CHANNELS 6 Xposition Yposition Zposition Zrotation Xrotation Yrotation 
							JOINT Hand_L
							{
								OFFSET 22.2916 0.0 0.0
								CHANNELS 6 Xposition Yposition Zposition Zrotation Xrotation Yrotation 
								End Site
								{
									OFFSET 0.0 0.0 0.0
								}
							}
						}
					}
				}
				JOINT Shoulder_R
				{
					OFFSET 12.9945 -0.242716 -4.98039
					CHANNELS 6 Xposition Yposition Zposition Zrotation Xrotation Yrotation 
					JOINT UpperArm_R
					{
						OFFSET -5.34813 0.0 0.0
						CHANNELS 6 Xposition Yposition Zposition Zrotation Xrotation Yrotation 
						JOINT LowerArm_R
						{
							OFFSET -24.3289 0.000322201 0.0
							CHANNELS 6 Xposition Yposition Zposition Zrotation Xrotation Yrotation 
							JOINT Hand_R
							{
								OFFSET -22.2915 -0.000108084 0.0
								CHANNELS 6 Xposition Yposition Zposition Zrotation Xrotation Yrotation 
								End Site
								{
									OFFSET 0.0 0.0 0.0
								}
							}
						}
					}
				}
			}
		}
		JOINT UpperLeg_L
		{
			OFFSET -2.19248 -6.46944 0.0
			CHANNELS 6 Xposition Yposition Zposition Zrotation Xrotation Yrotation 
			JOINT LowerLeg_L
			{
				OFFSET 39.0811 0.0 -1.23785e-05
				CHANNELS 6 Xposition Yposition Zposition Zrotation Xrotation Yrotation 
				JOINT Foot_L
				{
					OFFSET 40.9854 0.0 -1.26872e-05
					CHANNELS 6 Xposition Yposition Zposition Zrotation Xrotation Yrotation 
					JOINT Toes_L
					{
						OFFSET 11.7543 0.0 0.0
						CHANNELS 6 Xposition Yposition Zposition Zrotation Xrotation Yrotation 
						End Site
						{
							OFFSET 0.0 0.0 0.0
						}
					}
				}
			}
		}
		JOINT UpperLeg_R
		{
			OFFSET -2.19251 6.46944 0.0
			CHANNELS 6 Xposition Yposition Zposition Zrotation Xrotation Yrotation 
			JOINT LowerLeg_R
			{
				OFFSET -39.0811 -0.00228153 -0.0401928
				CHANNELS 6 Xposition Yposition Zposition Zrotation Xrotation Yrotation 
				JOINT Foot_R
				{
					OFFSET -40.9854 0.0 0.0
					CHANNELS 6 Xposition Yposition Zposition Zrotation Xrotation Yrotation 
					JOINT Toes_R
					{
						OFFSET -11.7543 0.0 0.0
						CHANNELS 6 Xposition Yposition Zposition Zrotation Xrotation Yrotation 
						End Site
						{
							OFFSET 0.0 0.0 0.0
						}
					}
				}
			}
		}
	}
}
MOTION
Frames:	9
Frame Time:	0.0333333
0.000000 0.000000 0.000000 0.000000 0.000000 -0.000000 -6.987750 80.367500 443.301000 -88.928600 14.235700 165.345000 15.735700 0.000005 -0.000001 114.190000 79.068700 -113.794000 8.984550 -0.406207 -0.000000 12.253000 8.893140 -0.162667 16.377300 -0.000001 -0.000001 -2.544430 0.172498 2.117380 6.456720 -0.000001 -0.000000 -9.424730 -1.610230 -4.019300 12.994200 -0.242716 4.980390 -89.094200 -2.269170 -68.236700 5.348090 -0.000007 -0.000001 -60.589700 31.901900 24.921200 24.328600 0.000019 0.000005 33.719700 45.546000 -43.088100 22.291600 -0.000001 0.000005 -9.496300 5.532820 -7.885080 12.994500 -0.242716 -4.980390 89.942600 0.652609 -84.896800 -5.348130 -0.000001 -0.000004 -60.454000 3.916150 -61.987100 -24.328900 0.000322 -0.000009 -5.190100 -0.022530 -89.741200 -22.291500 -0.000108 -0.000004 18.820300 5.582700 -10.338900 -2.192480 -6.469440 -0.000000 173.354000 -5.061230 -63.143400 39.081100 -0.000007 -0.000012 -0.613353 -0.497494 129.046000 40.985400 -0.000006 -0.000013 2.837980 -2.047660 -27.794800 11.754300 -0.000000 0.000003 -0.004818 -0.059701 -19.005800 -2.192510 6.469440 -0.000001 179.763000 11.295000 159.923000 -39.081100 -0.002282 -0.040193 -0.006139 0.006695 54.450100 -40.985400 0.000008 0.000006 1.829980 2.560320 -95.170600 -11.754300 -0.000006 -0.000006 -0.012569 -0.121923 -21.544200
0.000000 0.000000 0.000000 0.000000 0.000000 -0.000000 -7.012330 83.264200 433.541000 -91.888900 15.461500 164.150000 15.735700 0.000005 -0.000001 119.512000 79.813100 -121.005000 8.984550 -0.406207 -0.000000 10.209800 9.940410 -3.880050 16.377300 -0.000001 -0.000001 -1.615260 -0.450639 3.161920 6.456720 -0.000001 -0.000000 -8.436420 -2.767100 -2.735240 12.994200 -0.242716 4.980390 -88.115300 -4.575940 -67.586300 5.348090 -0.000007 -0.000001 -59.509600 29.914900 30.509200 24.328600 0.000019 0.000005 26.748300 34.060700 -41.988000 22.291600 -0.000001 0.000005 -7.305380 5.540950 -8.282290 12.994500 -0.242716 -4.980390 90.338200 -2.953540 -83.470900 -5.348130 -0.000001 -0.000004 -63.992700 3.852010 -65.854400 -24.328900 0.000322 -0.000009 -2.771830 0.260338 -95.397300 -22.291500 -0.000108 -0.000004 16.235000 5.547940 -8.579610 -2.192480 -6.469440 -0.000000 170.386000 -1.725000 -65.837900 39.081100 -0.000007 -0.000012 -0.365463 -0.195185 118.107000 40.985400 -0.000006 -0.000013 4.332600 -5.572710 -41.647800 11.754300 -0.000000 0.000003 -0.001589 -0.023458 -17.530600 -2.192510 6.469440 -0.000001 173.738000 11.247700 168.573000 -39.081100 -0.002282 -0.040193 -0.034890 0.040376 43.383200 -40.985400 0.000008 0.000006 1.351480 4.868170 -82.245000 -11.754300 -0.000006 -0.000006 -0.076554 -0.382192 -32.426000
0.000000 0.000000 0.000000 0.000000 0.000000 -0.000000 -6.860460 86.907800 423.938000 -93.361100 15.685800 162.330000 15.735700 0.000005 -0.000001 123.266000 80.701100 -126.059000 8.984550 -0.406207 -0.000000 8.135390 10.149200 -6.315770 16.377300 -0.000001 -0.000001 -0.816505 -0.914382 3.250860 6.456720 -0.000001 -0.000000 -7.703690 -3.543230 -0.998341 12.994200 -0.242716 4.980390 -87.293100 -6.624170 -67.712900 5.348090 -0.000007 -0.000001 -61.033700 25.785900 34.434300 24.328600 0.000019 0.000005 29.228800 31.984900 -46.569400 22.291600 -0.000001 0.000005 -2.672010 5.542560 -8.390680 12.994500 -0.242716 -4.980390 90.497000 -3.695560 -82.335400 -5.348130 -0.000001 -0.000004 -63.195300 5.714930 -65.955900 -24.328900 0.000322 -0.000009 -1.092930 0.149026 -97.748900 -22.291500 -0.000108 -0.000004 15.184600 5.509660 -6.929770 -2.192480 -6.469440 -0.000000 169.388000 0.447038 -65.797900 39.081100 -0.000007 -0.000012 -0.141311 -0.029071 101.630000 40.985400 -0.000006 -0.000013 5.968480 -10.831900 -53.358900 11.754300 -0.000000 0.000003 -0.005060 -0.062054 -19.101700 -2.192510 6.469440 -0.000001 169.784000 15.571200 173.563000 -39.081100 -0.002282 -0.040193 0.030894 -0.039662 34.836100 -40.985400 0.000008 0.000006 2.601830 9.246900 -60.500100 -11.754300 -0.000006 -0.000006 -0.254843 -0.729271 -48.296100
0.000000 0.000000 0.000000 0.000000 0.000000 -0.000000 -6.503460 90.157500 414.619000 -91.869200 14.560200 162.048000 15.735700 0.000005 -0.000001 123.409000 80.901100 -126.206000 8.984550 -0.406207 -0.000000 7.765180 9.980820 -6.278830 16.377300 -0.000001 -0.000001 -0.117728 -1.244660 3.026840 6.456720 -0.000001 -0.000000 -8.024370 -4.213370 -0.061159 12.994200 -0.242716 4.980390 -87.103900 -7.218030 -68.068300 5.348090 -0.000007 -0.000001 -62.909200 20.036500 35.278700 24.328600 0.000019 0.000005 28.121500 28.762600 -48.005400 22.291600 -0.000001 0.000005 0.816428 5.515630 -7.183380 12.994500 -0.242716 -4.980390 90.376100 -2.758330 -82.234200 -5.348130 -0.000001 -0.000004 -60.208900 8.648090 -63.024500 -24.328900 0.000322 -0.000009 -0.079979 0.011376 -97.748300 -22.291500 -0.000108 -0.000004 14.461500 5.484830 -5.931070 -2.192480 -6.469440 -0.000000 171.569000 0.836747 -61.287800 39.081100 -0.000007 -0.000012 0.006440 -0.000961 81.447400 40.985400 -0.000006 -0.000013 6.802310 -11.904200 -61.543800 11.754300 -0.000000 0.000003 -0.004527 -0.056816 -18.888200 -2.192510 6.469440 -0.000001 167.843000 21.594700 178.749000 -39.081100 -0.002282 -0.040193 0.103925 -0.186806 28.308300 -40.985400 0.000008 0.000006 -1.838670 14.970600 -38.053600 -11.754300 -0.000006 -0.000006 -0.124043 -0.500674 -37.602600
0.000000 0.000000 0.000000 0.000000 0.000000 -0.000000 -5.713790 91.820200 405.233000 -90.036700 12.853700 163.580000 15.735700 0.000005 -0.000001 121.207000 80.612700 -123.621000 8.984550 -0.406207 -0.000000 8.593010 9.664660 -5.560540 16.377300 -0.000001 -0.000001 0.632374 -1.746660 3.016800 6.456720 -0.000001 -0.000000 -8.563110 -4.830820 0.332338 12.994200 -0.242716 4.980390 -87.593500 -6.065940 -68.312200 5.348090 -0.000007 -0.000001 -63.510900 14.118600 33.813600 24.328600 0.000019 0.000005 24.270100 22.868300 -49.249300 22.291600 -0.000001 0.000005 2.622220 5.482040 -5.852660 12.994500 -0.242716 -4.980390 90.173700 -1.350430 -82.671100 -5.348130 -0.000001 -0.000004 -58.108600 12.663800 -56.665400 -24.328900 0.000322 -0.000009 1.353010 -0.127912 -95.422400 -22.291500 -0.000108 -0.000004 14.666800 5.475680 -5.582810 -2.192480 -6.469440 -0.000000 174.208000 -0.135909 -52.916300 39.081100 -0.000007 -0.000012 0.049553 -0.029659 59.093900 40.985400 -0.000006 -0.000013 5.566450 -4.997820 -67.786800 11.754300 -0.000000 0.000003 -0.003532 -0.046487 -18.467600 -2.192510 6.469440 -0.000001 166.059000 23.759300 -175.656000 -39.081100 -0.002282 -0.040193 0.169585 -0.314640 27.855400 -40.985400 0.000008 0.000006 -5.326020 14.366300 -28.941400 -11.754300 -0.000006 -0.000006 -0.015564 -0.141339 -22.340600
0.000000 0.000000 0.000000 0.000000 0.000000 -0.000000 -4.830330 91.997600 395.861000 -88.295000 12.750800 164.345000 15.735700 0.000005 -0.000001 122.008000 80.415400 -124.121000 8.984550 -0.406207 -0.000000 8.781560 10.092300 -5.007600 16.377300 -0.000001 -0.000001 0.371162 -1.738750 2.964760 6.456720 -0.000001 -0.000000 -7.998190 -5.087270 0.599427 12.994200 -0.242716 4.980390 -88.591400 -3.484380 -67.968000 5.348090 -0.000007 -0.000001 -64.314000 10.223600 30.263300 24.328600 0.000019 0.000005 19.134800 16.570300 -50.589400 22.291600 -0.000001 0.000005 5.804180 5.456920 -4.892480 12.994500 -0.242716 -4.980390 89.990700 0.076398 -83.031400 -5.348130 -0.000001 -0.000004 -57.434800 17.651200 -47.820100 -24.328900 0.000322 -0.000009 0.969431 -0.004193 -90.151800 -22.291500 -0.000108 -0.000004 16.585900 5.489770 -6.117110 -2.192480 -6.469440 -0.000000 175.238000 -4.515810 -44.729100 39.081100 -0.000007 -0.000012 -0.021963 0.029232 36.920000 40.985400 -0.000006 -0.000013 -0.445228 4.144530 -71.837000 11.754300 -0.000000 0.000003 -0.003847 -0.049849 -18.604400 -2.192510 6.469440 -0.000001 167.696000 16.204500 -174.385000 -39.081100 -0.002282 -0.040193 0.177787 -0.249261 34.994300 -40.985400 0.000008 0.000006 -3.464100 8.788160 -33.415000 -11.754300 -0.000006 -0.000006 -0.016984 -0.149972 -22.695300
0.000000 0.000000 0.000000 0.000000 0.000000 -0.000000 -3.839260 91.086100 386.223000 -85.810500 11.983000 165.840000 15.735700 0.000005 -0.000001 120.011000 80.045600 -121.536000 8.984550 -0.406207 -0.000000 9.714480 9.873580 -3.894260 16.377300 -0.000001 -0.000001 -0.412449 -1.197950 3.097340 6.456720 -0.000001 -0.000000 -8.180360 -4.854090 1.658440 12.994200 -0.242716 4.980390 -89.876800 -0.301006 -67.768100 5.348090 -0.000007 -0.000001 -65.481300 6.045640 24.104900 24.328600 0.000019 0.000005 13.353600 11.026000 -51.144200 22.291600 -0.000001 0.000005 7.110370 5.443770 -4.418630 12.994500 -0.242716 -4.980390 89.710600 2.460000 -83.288200 -5.348130 -0.000001 -0.000004 -57.959100 22.206800 -38.416500 -24.328900 0.000322 -0.000009 -1.390240 -0.230020 -80.825300 -22.291500 -0.000108 -0.000004 17.870200 5.509800 -6.934230 -2.192480 -6.469440 -0.000000 175.542000 -10.101500 -39.320900 39.081100 -0.000007 -0.000012 -0.021073 0.041965 26.663800 40.985400 -0.000006 -0.000013 -3.171090 5.000390 -74.238500 11.754300 -0.000000 0.000003 -0.004406 -0.055609 -18.839000 -2.192510 6.469440 -0.000001 172.547000 7.456770 -174.295000 -39.081100 -0.002282 -0.040193 0.199376 -0.188351 46.157000 -40.985400 0.000008 0.000006 -1.655090 2.428340 -31.637100 -11.754300 -0.000006 -0.000006 -0.017648 -0.153894 -22.856500
0.000000 0.000000 0.000000 0.000000 0.000000 -0.000000 -3.160530 89.173900 376.888000 -85.468200 9.556540 166.533000 15.735700 0.000005 -0.000001 113.418000 80.293100 -114.858000 8.984550 -0.406207 -0.000000 10.213700 7.635120 -3.565900 16.377300 -0.000001 -0.000001 -0.784428 -0.863175 3.405670 6.456720 -0.000001 -0.000000 -9.543050 -3.902760 2.593070 12.994200 -0.242716 4.980390 -91.087900 2.808120 -68.797700 5.348090 -0.000007 -0.000001 -66.968300 1.918860 15.502800 24.328600 0.000019 0.000005 12.305200 9.639080 -52.487700 22.291600 -0.000001 0.000005 4.797620 5.427950 -3.862380 12.994500 -0.242716 -4.980390 89.329200 5.584900 -83.142000 -5.348130 -0.000001 -0.000004 -58.701500 25.511100 -29.712900 -24.328900 0.000322 -0.000009 -5.922720 -2.552860 -66.899500 -22.291500 -0.000108 -0.000004 16.794600 5.528600 -7.737380 -2.192480 -6.469440 -0.000000 171.182000 -14.803200 -42.975600 39.081100 -0.000007 -0.000012 0.725871 -1.012300 35.645300 40.985400 -0.000006 -0.000013 8.552140 -5.922580 -70.099000 11.754300 -0.000000 0.000003 -0.006458 -0.074949 -19.627500 -2.192510 6.469440 -0.000001 174.603000 6.041020 -179.472000 -39.081100 -0.002282 -0.040193 0.304071 -0.138724 65.249600 -40.985400 0.000008 0.000006 -1.232640 0.627804 -28.171100 -11.754300 -0.000006 -0.000006 -0.017220 -0.151375 -22.753000
0.000000 0.000000 0.000000 0.000000 0.000000 -0.000000 -2.598140 85.903300 368.119000 -87.502300 6.001790 167.063000 15.735700 0.000005 -0.000001 102.401000 80.938500 -104.399000 8.984550 -0.406207 -0.000000 10.020900 3.828280 -4.329900 16.377300 -0.000001 -0.000001 -0.940057 -1.027530 3.416320 6.456720 -0.000001 -0.000000 -9.807180 -2.739990 4.059170 12.994200 -0.242716 4.980390 -91.879200 5.327820 -70.535600 5.348090 -0.000007 -0.000001 -66.618900 3.513810 4.863850 24.328600 0.000019 0.000005 14.515200 9.924370 -56.344900 22.291600 -0.000001 0.000005 4.514250 5.466410 -5.221620 12.994500 -0.242716 -4.980390 88.679100 9.808910 -82.295600 -5.348130 -0.000001 -0.000004 -58.663400 27.645200 -21.819600 -24.328900 0.000322 -0.000009 -9.712040 -8.791130 -48.289700 -22.291500 -0.000108 -0.000004 10.484400 5.498760 -6.389360 -2.192480 -6.469440 -0.000000 169.801000 -15.257300 -44.921000 39.081100 -0.000007 -0.000012 -0.017252 0.014762 49.454400 40.985400 -0.000006 -0.000013 8.616390 -4.017060 -70.423400 11.754300 -0.000000 0.000003 -0.005219 -0.063575 -19.163600 -2.192510 6.469440 -0.000001 174.080000 7.780960 170.707000 -39.081100 -0.002282 -0.040193 0.437383 -0.005670 89.262800 -40.985400 0.000008 0.000006 -1.762940 -1.655620 -23.846800 -11.754300 -0.000006 -0.000006 -0.018320 -0.157799 -23.017200
